M48
; DRILL file {KiCad 7.0.2} date Mon May  1 19:46:16 2023
; FORMAT={-:-/ absolute / metric / decimal}
; #@! TF.CreationDate,2023-05-01T19:46:16-04:00
; #@! TF.GenerationSoftware,Kicad,Pcbnew,7.0.2
; #@! TF.FileFunction,Plated,1,2,PTH
FMAT,2
METRIC
; #@! TA.AperFunction,Plated,PTH,ViaDrill
T1C0.600
; #@! TA.AperFunction,Plated,PTH,ComponentDrill
T2C0.800
; #@! TA.AperFunction,Plated,PTH,ComponentDrill
T3C1.000
; #@! TA.AperFunction,Plated,PTH,ComponentDrill
T4C4.000
%
G90
G05
T1
X108.585Y-87.63
X116.84Y-50.8
X123.19Y-54.61
X132.08Y-50.8
X137.16Y-54.61
X146.05Y-50.8
T2
X133.35Y-62.865
X133.35Y-65.405
X133.35Y-67.945
X133.35Y-70.485
X133.35Y-73.025
X133.35Y-75.565
X133.35Y-78.105
X135.89Y-59.055
X138.39Y-59.055
X140.97Y-62.865
X140.97Y-65.405
X140.97Y-67.945
X140.97Y-70.485
X140.97Y-73.025
X140.97Y-75.565
X140.97Y-78.105
T3
X107.315Y-58.42
X107.315Y-81.28
X109.855Y-58.42
X109.855Y-81.28
X112.395Y-58.42
X112.395Y-81.28
X114.935Y-58.42
X114.935Y-81.28
X117.475Y-58.42
X117.475Y-81.28
X120.015Y-58.42
X120.015Y-81.28
X122.555Y-58.42
X122.555Y-81.28
X125.095Y-58.42
X125.095Y-81.28
X148.59Y-67.31
X148.59Y-74.93
X151.13Y-67.31
X151.13Y-74.93
X153.67Y-67.31
X153.67Y-74.93
T4
X93.41Y-50.35
X93.41Y-89.35
X155.41Y-50.35
X155.41Y-89.35
T0
M30
