%TF.GenerationSoftware,KiCad,Pcbnew,7.0.2*%
%TF.CreationDate,2023-05-01T19:45:28-04:00*%
%TF.ProjectId,esp32cam,65737033-3263-4616-9d2e-6b696361645f,rev?*%
%TF.SameCoordinates,Original*%
%TF.FileFunction,Soldermask,Top*%
%TF.FilePolarity,Negative*%
%FSLAX46Y46*%
G04 Gerber Fmt 4.6, Leading zero omitted, Abs format (unit mm)*
G04 Created by KiCad (PCBNEW 7.0.2) date 2023-05-01 19:45:28*
%MOMM*%
%LPD*%
G01*
G04 APERTURE LIST*
%ADD10R,2.000000X2.000000*%
%ADD11C,8.000000*%
%ADD12R,4.000000X4.000000*%
%ADD13R,1.700000X1.700000*%
%ADD14O,1.700000X1.700000*%
%ADD15C,1.700000*%
%ADD16C,1.600000*%
%ADD17O,2.200000X1.500000*%
G04 APERTURE END LIST*
D10*
%TO.C,3.3V*%
X125095000Y-90805000D03*
%TD*%
%TO.C,IO\u00D8*%
X120015000Y-90805000D03*
%TD*%
D11*
%TO.C,H2*%
X155410000Y-50350000D03*
%TD*%
%TO.C,H3*%
X93410000Y-89350000D03*
%TD*%
D10*
%TO.C,IO14*%
X109855000Y-90805000D03*
%TD*%
D12*
%TO.C,GND*%
X142240000Y-50800000D03*
%TD*%
%TO.C,+5V*%
X106680000Y-50800000D03*
%TD*%
D11*
%TO.C,H1*%
X93410000Y-50350000D03*
%TD*%
D12*
%TO.C,OUT1*%
X121920000Y-50800000D03*
%TD*%
D13*
%TO.C,ESP32*%
X107315000Y-81280000D03*
D14*
X109855000Y-81280000D03*
X112395000Y-81280000D03*
X114935000Y-81280000D03*
X117475000Y-81280000D03*
X120015000Y-81280000D03*
X122555000Y-81280000D03*
X125095000Y-81280000D03*
X125095000Y-58420000D03*
X122555000Y-58420000D03*
X120015000Y-58420000D03*
X117475000Y-58420000D03*
X114935000Y-58420000D03*
X112395000Y-58420000D03*
X109855000Y-58420000D03*
D13*
X107315000Y-58420000D03*
%TD*%
D11*
%TO.C,H4*%
X155410000Y-89350000D03*
%TD*%
D12*
%TO.C,GND*%
X128270000Y-50800000D03*
%TD*%
D13*
%TO.C,INMP441*%
X148590000Y-74930000D03*
D14*
X151130000Y-74930000D03*
X153670000Y-74930000D03*
X153670000Y-67310000D03*
X151130000Y-67310000D03*
D15*
X148590000Y-67310000D03*
%TD*%
D10*
%TO.C,GND*%
X104775000Y-90805000D03*
%TD*%
D16*
%TO.C,C1*%
X138390000Y-59055000D03*
X135890000Y-59055000D03*
%TD*%
D12*
%TO.C,GND*%
X113030000Y-50800000D03*
%TD*%
%TO.C,OUT2*%
X135890000Y-50800000D03*
%TD*%
D10*
%TO.C,IO1*%
X114935000Y-90805000D03*
%TD*%
D17*
%TO.C,74HC125*%
X133350000Y-62865000D03*
X133350000Y-65405000D03*
X133350000Y-67945000D03*
X133350000Y-70485000D03*
X133350000Y-73025000D03*
X133350000Y-75565000D03*
X133350000Y-78105000D03*
X140970000Y-78105000D03*
X140970000Y-75565000D03*
X140970000Y-73025000D03*
X140970000Y-70485000D03*
X140970000Y-67945000D03*
X140970000Y-65405000D03*
X140970000Y-62865000D03*
%TD*%
M02*
