%TF.GenerationSoftware,KiCad,Pcbnew,7.0.2*%
%TF.CreationDate,2023-05-01T19:45:28-04:00*%
%TF.ProjectId,esp32cam,65737033-3263-4616-9d2e-6b696361645f,rev?*%
%TF.SameCoordinates,Original*%
%TF.FileFunction,Soldermask,Bot*%
%TF.FilePolarity,Negative*%
%FSLAX46Y46*%
G04 Gerber Fmt 4.6, Leading zero omitted, Abs format (unit mm)*
G04 Created by KiCad (PCBNEW 7.0.2) date 2023-05-01 19:45:28*
%MOMM*%
%LPD*%
G01*
G04 APERTURE LIST*
%ADD10C,8.000000*%
%ADD11R,1.700000X1.700000*%
%ADD12O,1.700000X1.700000*%
%ADD13C,1.700000*%
%ADD14C,1.600000*%
%ADD15O,2.200000X1.500000*%
G04 APERTURE END LIST*
D10*
%TO.C,H2*%
X155410000Y-50350000D03*
%TD*%
%TO.C,H3*%
X93410000Y-89350000D03*
%TD*%
%TO.C,H1*%
X93410000Y-50350000D03*
%TD*%
D11*
%TO.C,ESP32*%
X107315000Y-81280000D03*
D12*
X109855000Y-81280000D03*
X112395000Y-81280000D03*
X114935000Y-81280000D03*
X117475000Y-81280000D03*
X120015000Y-81280000D03*
X122555000Y-81280000D03*
X125095000Y-81280000D03*
X125095000Y-58420000D03*
X122555000Y-58420000D03*
X120015000Y-58420000D03*
X117475000Y-58420000D03*
X114935000Y-58420000D03*
X112395000Y-58420000D03*
X109855000Y-58420000D03*
D11*
X107315000Y-58420000D03*
%TD*%
D10*
%TO.C,H4*%
X155410000Y-89350000D03*
%TD*%
D11*
%TO.C,INMP441*%
X148590000Y-74930000D03*
D12*
X151130000Y-74930000D03*
X153670000Y-74930000D03*
X153670000Y-67310000D03*
X151130000Y-67310000D03*
D13*
X148590000Y-67310000D03*
%TD*%
D14*
%TO.C,C1*%
X138390000Y-59055000D03*
X135890000Y-59055000D03*
%TD*%
D15*
%TO.C,74HC125*%
X133350000Y-62865000D03*
X133350000Y-65405000D03*
X133350000Y-67945000D03*
X133350000Y-70485000D03*
X133350000Y-73025000D03*
X133350000Y-75565000D03*
X133350000Y-78105000D03*
X140970000Y-78105000D03*
X140970000Y-75565000D03*
X140970000Y-73025000D03*
X140970000Y-70485000D03*
X140970000Y-67945000D03*
X140970000Y-65405000D03*
X140970000Y-62865000D03*
%TD*%
M02*
